<svg xmlns="http://www.w3.org/2000/svg" xmlns:xlink="http://www.w3.org/1999/xlink" width="800" zoomAndPan="magnify" viewBox="0 0 600 599.999999" height="800" preserveAspectRatio="xMidYMid meet" version="1.0"><defs><clipPath id="0ec367f0f8"><path d="M 0 81.75 L 600 81.75 L 600 518.25 L 0 518.25 Z M 0 81.75 " clip-rule="nonzero"/></clipPath></defs><g clip-path="url(#0ec367f0f8)"><path fill="#020618" d="M 600.035156 452.097656 C 580.1875 472.929688 557.21875 489.15625 531.136719 500.746094 C 505.039062 512.363281 477.320312 518.160156 447.949219 518.160156 C 418.980469 518.160156 391.40625 512.414062 365.214844 500.894531 C 343.121094 491.191406 323.585938 478.652344 306.585938 463.300781 C 303.433594 460.453125 300.339844 457.507812 297.355469 454.460938 C 278.304688 435.011719 263.171875 411.804688 251.96875 384.808594 C 251.386719 383.425781 243.261719 368.441406 238.109375 363.238281 C 228.988281 354.023438 217.871094 349.402344 204.773438 349.402344 L 128.875 349.402344 C 93.359375 349.402344 62.996094 336.816406 37.796875 311.605469 C 12.597656 286.417969 0 256.054688 0 220.550781 C 0 185.03125 12.636719 154.679688 37.941406 129.46875 C 63.25 104.273438 93.648438 91.671875 129.167969 91.671875 L 279.265625 91.671875 L 225.167969 165.789062 L 131.554688 165.789062 C 117.066406 165.789062 104.273438 170.503906 93.152344 179.925781 C 82.046875 189.363281 75.800781 201.097656 74.40625 215.191406 C 73.023438 231.464844 77.777344 245.542969 88.691406 257.449219 C 99.605469 269.355469 113.089844 275.3125 129.179688 275.3125 L 204.773438 275.3125 C 215.734375 275.3125 226.1875 276.597656 236.109375 279.132812 C 256.503906 284.34375 274.679688 294.929688 290.625 310.878906 C 291.804688 312.054688 292.941406 313.242188 294.058594 314.441406 C 303.890625 325.003906 311.214844 337.601562 316.199219 351.148438 C 317.984375 355.984375 320.03125 360.703125 322.347656 365.3125 C 328.933594 378.394531 337.710938 390.558594 348.675781 401.796875 C 376.152344 429.96875 409.246094 444.058594 447.9375 444.058594 C 467.183594 444.058594 485.445312 440.191406 502.699219 432.453125 C 519.96875 424.71875 535.136719 413.996094 548.234375 400.308594 Z M 238.097656 430.222656 C 228.976562 439.449219 217.859375 444.058594 204.761719 444.058594 L 36.609375 444.058594 L 0 518.171875 L 204.773438 518.171875 C 236.992188 518.171875 264.675781 507.222656 287.824219 485.324219 C 269.601562 469.074219 254.964844 449.210938 244.863281 426.996094 L 243.445312 423.867188 C 241.867188 426.085938 240.097656 428.199219 238.097656 430.222656 Z M 531.136719 99.265625 C 505.039062 87.660156 477.308594 81.851562 447.9375 81.851562 C 418.96875 81.851562 391.394531 87.609375 365.203125 99.105469 C 339.007812 110.613281 316.394531 126.085938 297.34375 145.539062 C 278.292969 164.988281 263.160156 188.199219 251.957031 215.179688 C 247.03125 227.039062 243.203125 239.140625 240.4375 251.496094 C 264.640625 258.394531 286.78125 271.152344 304.886719 288.636719 L 307.699219 291.355469 C 309.566406 255.375 323.222656 224.382812 348.6875 198.371094 C 376.164062 170.300781 409.257812 156.257812 447.949219 156.257812 C 487.03125 156.257812 520.476562 170.746094 548.257812 199.71875 L 600.035156 147.925781 C 580.1875 127.082031 557.21875 110.867188 531.136719 99.265625 Z M 531.136719 99.265625 " fill-opacity="1" fill-rule="nonzero"/><path fill="#ffffff" d="M 600.035156 452.097656 C 580.1875 472.929688 557.21875 489.15625 531.136719 500.746094 C 505.039062 512.363281 477.320312 518.160156 447.949219 518.160156 C 418.980469 518.160156 391.40625 512.414062 365.214844 500.894531 C 343.121094 491.191406 323.585938 478.652344 306.585938 463.300781 C 303.433594 460.453125 300.339844 457.507812 297.355469 454.460938 C 278.304688 435.011719 263.171875 411.804688 251.96875 384.808594 C 251.386719 383.425781 243.261719 368.441406 238.109375 363.238281 C 228.988281 354.023438 217.871094 349.402344 204.773438 349.402344 L 128.875 349.402344 C 93.359375 349.402344 62.996094 336.816406 37.796875 311.605469 C 12.597656 286.417969 0 256.054688 0 220.550781 C 0 185.03125 12.636719 154.679688 37.941406 129.46875 C 63.25 104.273438 93.648438 91.671875 129.167969 91.671875 L 279.265625 91.671875 L 225.167969 165.789062 L 131.554688 165.789062 C 117.066406 165.789062 104.273438 170.503906 93.152344 179.925781 C 82.046875 189.363281 75.800781 201.097656 74.40625 215.191406 C 73.023438 231.464844 77.777344 245.542969 88.691406 257.449219 C 99.605469 269.355469 113.089844 275.3125 129.179688 275.3125 L 204.773438 275.3125 C 215.734375 275.3125 226.1875 276.597656 236.109375 279.132812 C 256.503906 284.34375 274.679688 294.929688 290.625 310.878906 C 291.804688 312.054688 292.941406 313.242188 294.058594 314.441406 C 303.890625 325.003906 311.214844 337.601562 316.199219 351.148438 C 317.984375 355.984375 320.03125 360.703125 322.347656 365.3125 C 328.933594 378.394531 337.710938 390.558594 348.675781 401.796875 C 376.152344 429.96875 409.246094 444.058594 447.9375 444.058594 C 467.183594 444.058594 485.445312 440.191406 502.699219 432.453125 C 519.96875 424.71875 535.136719 413.996094 548.234375 400.308594 Z M 238.097656 430.222656 C 228.976562 439.449219 217.859375 444.058594 204.761719 444.058594 L 36.609375 444.058594 L 0 518.171875 L 204.773438 518.171875 C 236.992188 518.171875 264.675781 507.222656 287.824219 485.324219 C 269.601562 469.074219 254.964844 449.210938 244.863281 426.996094 L 243.445312 423.867188 C 241.867188 426.085938 240.097656 428.199219 238.097656 430.222656 Z M 531.136719 99.265625 C 505.039062 87.660156 477.308594 81.851562 447.9375 81.851562 C 418.96875 81.851562 391.394531 87.609375 365.203125 99.105469 C 339.007812 110.613281 316.394531 126.085938 297.34375 145.539062 C 278.292969 164.988281 263.160156 188.199219 251.957031 215.179688 C 247.03125 227.039062 243.203125 239.140625 240.4375 251.496094 C 264.640625 258.394531 286.78125 271.152344 304.886719 288.636719 L 307.699219 291.355469 C 309.566406 255.375 323.222656 224.382812 348.6875 198.371094 C 376.164062 170.300781 409.257812 156.257812 447.949219 156.257812 C 487.03125 156.257812 520.476562 170.746094 548.257812 199.71875 L 600.035156 147.925781 C 580.1875 127.082031 557.21875 110.867188 531.136719 99.265625 Z M 531.136719 99.265625 " fill-opacity="1" fill-rule="nonzero"/></g></svg>